<?xml version="1.0" encoding="utf-8"?><svg xml:space="preserve" viewBox="0 0 100 100" y="0" x="0" xmlns="http://www.w3.org/2000/svg" id="圖層_1" version="1.1" width="200px" height="200px" xmlns:xlink="http://www.w3.org/1999/xlink" style="width:100%;height:100%;background-size:initial;background-repeat-y:initial;background-repeat-x:initial;background-position-y:initial;background-position-x:initial;background-origin:initial;background-image:initial;background-color:rgb(255, 255, 255);background-clip:initial;background-attachment:initial;animation-play-state:paused" ><g class="ldl-scale" style="transform-origin:50% 50%;transform:rotate(0deg) scale(0.8, 0.8);animation-play-state:paused" ><path fill="#333" d="M68.401 13.627H31.599a4.502 4.502 0 0 0-3.898 2.25L9.299 47.75a4.501 4.501 0 0 0 0 4.501L27.7 84.123a4.5 4.5 0 0 0 3.898 2.25h36.803a4.502 4.502 0 0 0 3.898-2.25L90.701 52.25a4.501 4.501 0 0 0 0-4.501L72.299 15.877a4.502 4.502 0 0 0-3.898-2.25z" style="fill:rgb(38, 49, 63);animation-play-state:paused" ></path>
<path fill="#fff" d="M64.485 64.683h-2.737v-2.89c0-3.13-1.88-6.067-5.029-7.856-1.457-.828-2.327-2.15-2.327-3.538v-.797c0-1.387.87-2.71 2.328-3.538 3.149-1.789 5.029-4.726 5.029-7.856v-2.89h2.737c.62 0 1.19-.273 1.562-.75.35-.449.473-1.019.337-1.563l-.324-1.299C65.663 30.113 64.182 29 62.457 29H37.542c-1.724 0-3.206 1.113-3.603 2.705l-.324 1.298a1.814 1.814 0 0 0 .337 1.564c.372.477.942.75 1.562.75h2.737v2.89c0 3.13 1.88 6.067 5.029 7.856 1.457.829 2.327 2.151 2.327 3.538v.797c0 1.387-.87 2.71-2.327 3.538-3.149 1.79-5.029 4.727-5.029 7.856v2.89h-2.737c-.62 0-1.19.273-1.562.75a1.814 1.814 0 0 0-.337 1.564l.324 1.298C34.337 69.887 35.818 71 37.542 71h24.915c1.724 0 3.206-1.113 3.604-2.705l.323-1.298a1.815 1.815 0 0 0-.337-1.564 1.962 1.962 0 0 0-1.562-.75zm-4.193 0h-2.433v-1.048c0-1.872-1.152-3.6-3.161-4.742l-.057-.033a9.304 9.304 0 0 0-9.286.003l-.056.032c-2.006 1.14-3.157 2.868-3.157 4.74v1.048h-2.433v-2.89c0-2.599 1.604-5.063 4.292-6.59 1.919-1.09 3.065-2.887 3.065-4.805v-.797c0-1.918-1.146-3.714-3.065-4.805-2.687-1.527-4.292-3.99-4.292-6.59v-2.89h20.584v2.89c0 2.599-1.604 5.062-4.292 6.59-1.919 1.09-3.064 2.886-3.064 4.805v.797c0 1.918 1.145 3.714 3.064 4.805 2.688 1.527 4.293 3.99 4.293 6.59v2.89z" style="fill:rgb(70, 194, 201);animation-play-state:paused" ></path>
<path fill="#fff" d="M50 48.496a.726.726 0 0 0 .706-.552c.512-2.049 1.931-3.824 3.996-4.997 1.669-.949 2.756-2.321 3.062-3.863a.726.726 0 0 0-.715-.869h-14.1a.726.726 0 0 0-.715.869c.306 1.542 1.393 2.914 3.062 3.863 2.065 1.174 3.484 2.948 3.996 4.997a.73.73 0 0 0 .708.552z" style="fill:rgb(70, 194, 201);animation-play-state:paused" ></path>
<path fill="#fff" d="M50 52.615a.73.73 0 0 0 .728-.728v-1.053a.73.73 0 0 0-.728-.728.73.73 0 0 0-.728.728v1.053a.728.728 0 0 0 .728.728z" style="fill:rgb(70, 194, 201);animation-play-state:paused" ></path>
<path fill="#fff" d="M50.001 54.285c-.2 0-.388.073-.516.2a.738.738 0 0 0 0 1.033.74.74 0 0 0 .663.199c.044-.013.091-.026.137-.043.032-.017.079-.04.127-.069.024-.02.065-.051.1-.087.138-.138.217-.326.217-.517s-.08-.378-.217-.516c-.125-.127-.295-.189-.511-.2z" style="fill:rgb(70, 194, 201);animation-play-state:paused" ></path>
<metadata xmlns:d="https://loading.io/stock/" style="animation-play-state:paused" ><d:name style="animation-play-state:paused" >hourglass</d:name>
<d:tags style="animation-play-state:paused" >hourglass,sandglass,timer,countdown,elapse,flow,pass by,temporal,hexagon</d:tags>
<d:license style="animation-play-state:paused" >by</d:license>
<d:slug style="animation-play-state:paused" >ykkkrx</d:slug></metadata></g><!-- generated by https://loading.io/ --></svg>