<?xml version="1.0" encoding="utf-8"?>
<svg viewBox="0 0 500 500" xmlns="http://www.w3.org/2000/svg">
  <polygon points="352.111 326.988 414.044 265.244 352.111 203.5 370.993 184.681 451.808 265.244 370.993 345.807 352.111 326.988 352.111 326.988" style="isolation:isolate" fill="#e6e6e6"/>
  <rect x="175.249" y="240.474" width="25.176" height="25.176" fill="#e6e6e6" style="isolation:isolate"/>
  <rect x="276.457" y="240.474" width="25.176" height="25.176" fill="#e6e6e6" style="isolation:isolate"/>
  <rect x="225.853" y="240.474" width="25.176" height="25.176" fill="#e6e6e6" style="isolation:isolate"/>
  <polygon points="141.136 326.359 79.14 264.615 141.073 202.871 122.191 184.052 41.439 264.615 122.254 345.178 141.136 326.359" fill="#e6e6e6" style="isolation:isolate"/>
  <polygon points="352.111 315.03 414.044 253.286 352.111 191.541 370.993 172.722 451.808 253.286 370.993 333.849 352.111 315.03 352.111 315.03" fill="var(--secondary)"/>
  <path d="M 175.249 257.691 L 200.425 257.691 L 200.425 232.515 L 175.249 232.515 L 175.249 257.691 Z M 301.633 232.515 L 276.457 232.515 L 276.457 257.691 L 301.633 257.691 L 301.633 232.515 Z M 225.853 257.691 L 251.029 257.691 L 251.029 232.515 L 225.853 232.515 L 225.853 257.691 Z" fill="var(--secondary)"/>
  <polygon points="141.136 314.4 79.14 252.656 141.073 190.912 122.191 172.093 41.439 252.656 122.254 333.219 141.136 314.4" fill="var(--secondary)"/>
</svg>