<?xml version="1.0" encoding="utf-8"?>
<svg viewBox="0 0 500 500" xmlns="http://www.w3.org/2000/svg">
  <path d="M258.97664,220.10456c-.26447-.23195-.51409-.47962-.77257-.718-.00927.02445-.01069.04951-.02056.07389Z" transform="matrix(1, 0, 0, 1, -65.432083, -167.461151)" fill="#2f2e41"/>
  <path d="M 19.524 83.788 L 19.524 370.812 C 19.53 378.428 25.702 384.601 33.318 384.607 L 458.658 384.607 C 466.275 384.601 472.447 378.428 472.453 370.812 L 472.453 83.788 C 472.435 76.18 466.267 70.018 458.658 70.009 L 33.318 70.009 C 25.71 70.018 19.542 76.18 19.524 83.788 Z" fill="#3f3d56"/>
  <path d="M 29.502 87.359 L 29.502 367.271 C 29.509 371.34 32.806 374.637 36.874 374.644 L 455.118 374.644 C 459.187 374.637 462.483 371.34 462.49 367.271 L 462.49 87.359 C 462.49 83.285 459.192 79.98 455.118 79.972 L 36.874 79.972 C 32.8 79.98 29.502 83.285 29.502 87.359 Z" fill="#fff"/>
  <path d="M 341.276 249.531 C 341.133 322.386 262.175 367.766 199.152 331.214 C 136.129 294.663 136.308 203.593 199.474 167.29 C 250.137 138.172 314.822 161.469 335.284 216.204 C 335.49 216.76 335.692 217.316 335.887 217.877 L 335.887 217.882 C 336.761 220.349 337.53 222.861 338.195 225.42 C 340.247 233.292 341.283 241.395 341.276 249.531 Z" fill="#3f3d56"/>
  <path d="M 235.572 185.247 C 226.895 180.554 216.538 180.131 207.507 184.098 C 203.583 185.806 199.451 188.87 198.142 194.402 C 203.436 191.277 210.289 196.214 211.652 204.133 L 211.334 204.221 C 210.614 209.706 212.22 215.678 215.33 219.08 C 215.799 215.972 217.641 213.24 220.346 211.64 C 222.631 210.138 225.159 209.047 226.903 206.465 C 228.971 203.404 229.496 198.931 230.317 194.85 C 231.138 190.77 232.697 186.384 235.572 185.247 Z" fill="var(--secondary)"/>
  <path d="M 205.936 231.925 C 204.47 234.127 202.511 235.509 200.754 237.229 C 198.725 239.075 197.394 241.563 196.985 244.275 C 196.763 246.191 197.107 248.139 197.059 250.076 C 197.012 252.013 196.366 254.194 195.048 254.676 C 192.967 255.428 191.379 251.563 189.241 251.293 C 187.542 251.082 186.012 253.755 186.504 256.073 C 186.997 258.392 189.31 259.419 190.638 257.905 C 191.84 259.922 190.993 263.579 189.188 264.199 C 188.997 265.469 188.807 266.734 188.622 268.005 C 184.059 264.813 179.448 261.568 175.568 256.894 C 171.253 251.74 168.577 245.413 167.882 238.727 C 167.38 233.354 168.126 227.209 165.659 223.075 C 163.685 219.766 160.297 219.036 157.248 219.242 C 156.692 219.279 156.131 219.343 155.575 219.412 C 157.373 214.011 159.657 208.785 162.398 203.796 C 163.019 203.53 163.595 203.171 164.108 202.732 C 166.945 200.324 168.205 195.449 170.508 192.077 C 170.656 191.86 170.81 191.648 170.968 191.442 C 173.324 188.366 176.479 186.784 179.528 185.312 C 186.277 182.035 193.221 178.717 200.346 179.172 L 198.319 179.368 C 195.953 185.995 193.585 192.622 191.215 199.249 C 190.855 200.266 190.492 201.284 190.125 202.304 C 188.78 206.072 187.394 210.085 187.6 214.304 C 187.722 216.802 188.59 219.47 190.241 220.327 C 191.782 221.121 193.465 220.147 194.952 219.184 C 195.582 218.782 196.207 218.38 196.837 217.972 C 199.097 216.516 201.601 215.024 203.988 215.998 C 206.174 216.887 207.789 219.856 208.096 223.059 C 208.377 226.172 207.618 229.29 205.936 231.925 Z" fill="var(--secondary)"/>
  <path d="M 219.379 277.171 C 212.778 273.107 206.176 269.042 199.575 264.978 L 199.687 264.689 C 195.583 266.252 193.879 273.548 194.557 279.514 C 195.235 285.481 197.535 290.814 198.697 296.628 C 200.264 304.584 199.673 312.813 196.985 320.463 C 205.665 310.723 213.347 300.138 219.915 288.865 C 220.833 287.445 221.532 285.894 221.99 284.266 C 222.474 282.531 222.301 280.678 221.505 279.062 C 220.964 278.265 220.234 277.615 219.379 277.171 Z" fill="var(--secondary)"/>
  <path d="M 193.326 203.226 C 192.551 204.89 192.431 206.786 192.991 208.534 C 193.643 209.943 194.824 211.037 196.279 211.579 L 199.926 213.387 C 201.14 213.988 202.448 214.596 203.685 214.101 C 205.177 213.504 206.211 211.165 205.944 208.993 C 205.659 206.683 204.202 205.093 202.855 203.74 C 200.97 201.845 199.085 199.951 197.2 198.057 L 196.137 199.358 C 194.988 200.479 194.037 201.787 193.326 203.226 Z" fill="var(--secondary)"/>
  <path d="M 321.722 227.929 C 323.363 228.315 325.004 228.702 326.645 229.088 C 326.359 234.63 323.612 239.759 319.928 241.617 C 318.393 242.39 316.683 242.676 315.413 244.121 C 314.264 245.434 313.682 247.477 313.147 249.43 C 312.21 252.839 311.273 256.248 310.337 259.657 C 309.331 263.331 308.039 267.412 305.424 268.735 C 303.18 269.873 300.613 268.481 298.887 266.147 C 297.161 263.812 296.108 260.673 295.086 257.614 C 295.15 260.949 293.599 264.22 291.402 265.379 C 289.2 266.538 286.522 265.49 285.05 262.902 C 283.992 261.044 283.552 258.593 282.515 256.709 C 281.477 254.824 279.302 253.744 278.169 255.512 C 277.423 256.687 277.518 258.487 277.147 259.98 C 276.765 262.011 275.137 263.577 273.093 263.881 C 271.239 263.839 269.484 263.037 268.239 261.663 C 264.997 258.347 262.887 254.092 262.21 249.504 C 261.75 247.305 261.808 245.029 262.379 242.856 C 263.03 240.797 264.602 239.209 266.164 239.601 C 267.191 237.43 265.163 234.551 263.337 234.805 C 261.506 235.059 260.071 237.023 258.568 238.531 C 257.07 240.04 254.974 241.136 253.465 239.638 C 253.539 240.843 252.571 241.855 251.364 241.834 C 250.36 241.546 249.428 241.052 248.627 240.384 C 245.17 238.23 240.782 239.659 238.326 243.735 C 239.861 237.203 242.111 229.707 246.827 228.172 C 248.754 227.542 250.855 228.061 252.676 226.971 C 255.9 225.039 256.551 217.739 253.767 214.727 C 254.121 217.575 254.053 220.899 252.549 222.847 C 251.046 224.795 247.891 223.525 248.082 220.645 C 247.926 222.122 246.229 222.876 245.028 222.002 C 244.81 221.844 244.628 221.641 244.493 221.407 C 243.492 219.883 243.577 217.39 244.286 215.569 C 245.018 213.92 246.066 212.43 247.372 211.186 C 249.887 208.492 252.438 205.766 255.349 204.072 C 258.266 202.378 261.633 201.806 264.554 203.489 C 266.095 204.379 267.45 205.861 269.022 206.644 C 270.609 207.629 272.697 207.107 273.633 205.49 C 274.802 203.436 274.252 200.388 274.686 197.82 C 275.464 193.284 280 191.161 282.515 194.157 C 280.636 193.676 278.693 195.899 278.46 198.593 C 278.222 201.287 279.582 204.008 281.403 204.823 C 284.463 206.178 287.459 202.77 289.772 199.615 C 292.186 196.312 294.603 193.01 297.024 189.711 C 297.41 189.149 297.844 188.621 298.321 188.134 C 299.894 186.6 302.387 186.549 304.022 188.017 C 306.467 190.013 307.616 194.104 309.622 196.92 C 312.533 201.012 316.89 202.007 320.944 202.801 C 323.967 203.389 326.991 203.98 330.017 204.575 C 332.034 208.327 333.794 212.213 335.284 216.204 C 329.735 218.734 325.028 222.804 321.722 227.929 Z" fill="var(--secondary)"/>
  <path d="M 338.195 225.42 C 337.575 227.248 337.236 229.159 337.19 231.089 C 334.596 227.923 334.183 221.99 335.887 217.882 C 336.761 220.349 337.53 222.861 338.195 225.42 Z" fill="var(--secondary)"/>
  <path d="M 331.494 291.618 C 329.226 296.223 326.589 300.636 323.607 304.814 C 321.701 303.999 319.653 305.455 317.869 306.821 C 316.006 308.25 313.767 309.642 311.856 308.34 C 309.903 307.006 309.273 303.274 309.892 300.315 C 310.604 297.585 311.849 295.024 313.555 292.777 C 315.143 290.406 316.842 287.945 319.049 287.023 C 321.262 286.102 324.104 287.405 324.75 290.549 L 326.317 290.496 C 325.438 289.289 325.899 286.791 327.079 286.351 C 328.44 285.838 329.62 287.706 330.425 289.358 C 330.785 290.104 331.15 290.856 331.494 291.618 Z" fill="var(--secondary)"/>
  <path d="M 271.486 269.26 C 268.118 269.471 265.45 265.325 263.678 261.247 C 261.905 257.168 260.288 252.504 257.249 250.428 C 255.512 249.241 253.533 249.079 251.65 248.504 C 249.482 247.957 247.712 246.398 246.895 244.317 L 244.758 243.454 C 241.77 244.948 239.033 246.9 236.647 249.238 C 233.92 252.134 232.222 255.847 231.814 259.804 C 231.406 264.08 232.913 268.848 235.729 270.455 C 237.954 271.724 240.544 270.924 242.798 272.086 C 245.613 273.538 247.285 277.755 247.918 281.919 C 248.551 286.083 248.39 290.41 248.843 294.621 C 249.296 298.833 250.544 303.215 253.126 305.373 C 256.357 308.073 261.099 305.829 262.549 300.913 C 263.26 298.502 263.235 295.781 263.767 293.278 C 264.704 288.87 267.232 285.599 269.236 281.983 C 271.241 278.367 272.819 273.456 271.486 269.26 Z" fill="var(--secondary)"/>
  <path d="M 238.207 225.943 C 238.521 226.232 238.814 226.544 239.084 226.874 C 239.653 227.856 239.632 229.072 239.03 230.033 C 239.85 229.986 240.613 229.598 241.135 228.963 C 241.749 228.263 242.29 227.502 242.748 226.691 C 243.184 226.129 243.357 225.406 243.224 224.708 C 243.065 224.254 242.688 224.06 242.425 223.719 C 242.059 223.051 241.81 222.326 241.687 221.575 C 241.388 220.139 240.303 218.995 238.885 218.622 L 239.053 218.654 C 238.464 219.004 238.163 219.689 238.304 220.36 C 238.406 221.02 238.83 221.569 238.788 222.242 C 238.727 223.211 237.759 223.666 237.699 224.634 C 237.69 225.121 237.872 225.591 238.207 225.943 Z" fill="var(--secondary)"/>
  <path d="M 232.437 209.481 L 232.452 209.478 C 232.555 209.384 232.651 209.281 232.739 209.172 L 232.437 209.481 Z" fill="var(--secondary)"/>
  <path d="M 233.447 214.028 C 234.271 213.305 234.624 212.182 234.361 211.117 C 234.116 210.015 233.251 209.275 232.452 209.478 C 231.981 209.956 231.297 210.157 230.642 210.011 C 230.149 209.884 229.607 209.556 229.178 209.928 C 228.933 210.206 228.762 210.541 228.68 210.902 C 228.521 211.389 228.363 211.875 228.204 212.362 C 228.129 212.536 228.109 212.729 228.148 212.915 C 228.21 213.066 228.346 213.175 228.507 213.201 C 229.458 213.481 230.409 213.761 231.36 214.042 C 232.023 214.347 232.788 214.342 233.447 214.028 Z" fill="var(--secondary)"/>
  <path d="M 305.247 276.807 C 304.807 276.087 304.367 275.367 303.928 274.647 C 303.496 273.814 302.905 273.072 302.19 272.465 C 301.527 271.91 300.537 272.009 299.997 272.685 L 300.051 273.096 C 301.228 274.358 302.03 275.923 302.367 277.616 C 302.467 278.351 302.433 279.112 302.521 279.851 C 302.539 280.543 302.832 281.199 303.335 281.675 C 304.027 282.137 304.84 281.455 305.333 280.623 C 305.773 279.94 305.971 279.128 305.894 278.319 C 305.784 277.776 305.564 277.261 305.247 276.807 Z" fill="var(--secondary)"/>
  <path d="M 312.143 277.743 C 312.227 277.069 312.172 276.386 311.982 275.734 C 311.951 274.852 312.185 273.98 312.654 273.233 C 313.119 272.527 313.472 271.754 313.7 270.939 C 313.795 270.568 313.778 270.177 313.649 269.816 C 313.504 269.489 313.151 269.34 312.949 269.599 L 313.382 269.878 C 312.798 269.774 312.197 269.803 311.626 269.963 C 310.964 270.216 310.468 270.776 310.295 271.463 C 310.224 271.991 310.107 272.512 309.946 273.019 C 309.688 273.55 309.189 273.726 308.875 274.192 C 308.44 275.031 308.456 276.032 308.919 276.855 C 309.313 277.519 309.94 278.012 310.677 278.238 C 311.206 278.428 311.901 278.438 312.143 277.743 Z" fill="var(--secondary)"/>
  <path d="M 324.425 281.449 C 324.616 281.946 324.872 282.416 325.186 282.846 C 325.774 283.438 326.573 283.074 327.286 282.93 C 328.605 282.722 329.932 283.254 330.741 284.316 C 330.18 281.516 328.294 279.163 325.684 278.006 C 324.012 277.427 322.251 277.152 320.482 277.193 L 320.18 277.27 C 320.95 279.511 323.367 279.46 324.425 281.449 Z" fill="var(--secondary)"/>
  <path d="M 272.407 286.031 L 272.411 286.041 L 272.499 285.872 L 272.407 286.031 Z" fill="var(--secondary)"/>
  <path d="M 270.544 289.638 C 270.138 290.376 269.788 291.143 269.499 291.934 C 269.115 293.215 268.861 294.531 268.741 295.863 C 268.646 296.62 268.617 297.587 269.092 297.956 C 269.373 298.143 269.75 298.092 269.972 297.837 C 270.235 297.558 270.451 297.237 270.61 296.888 C 271.542 295.282 272.266 293.564 272.764 291.775 C 273.284 289.878 273.16 287.861 272.411 286.041 C 271.789 287.24 271.166 288.439 270.544 289.638 Z" fill="var(--secondary)"/>
  <path d="M 252.569 193.555 C 253.174 194.147 254.073 194.322 254.856 194.002 C 255.649 193.655 256.376 193.174 257.007 192.581 C 257.528 192.195 257.971 191.712 258.311 191.158 C 258.688 190.49 258.784 189.7 258.577 188.961 C 258.281 188.248 257.637 187.739 256.876 187.615 C 255.82 187.302 254.764 186.989 253.709 186.676 L 254.472 185.987 C 253.687 185.566 252.818 186.348 252.326 187.317 C 252.012 187.95 251.792 188.626 251.675 189.323 C 251.337 190.796 251.664 192.344 252.569 193.555 Z" fill="var(--secondary)"/>
  <path d="M 271.207 187.299 C 271.825 187.979 272.865 188.064 273.584 187.492 C 274.187 187.039 274.57 186.35 274.635 185.599 C 274.71 184.768 274.299 183.845 273.713 183.774 L 273.847 182.996 C 272.718 182.792 271.328 182.751 270.722 184.123 C 270.307 185.192 270.491 186.402 271.207 187.299 Z" fill="var(--secondary)"/>
  <path d="M 439.658 130.645 L 52.334 130.645 C 51.553 130.628 51.083 129.771 51.489 129.103 C 51.669 128.806 51.988 128.622 52.334 128.614 L 439.658 128.614 C 440.439 128.632 440.909 129.488 440.504 130.157 C 440.324 130.453 440.005 130.638 439.658 130.645 Z" fill="#cacaca"/>
  <ellipse cx="74.69" cy="105.261" rx="10.925" ry="11.169" fill="#3f3d56"/>
  <ellipse cx="112.432" cy="105.261" rx="10.925" ry="11.169" fill="#3f3d56"/>
  <ellipse cx="150.174" cy="105.261" rx="10.925" ry="11.169" fill="#3f3d56"/>
  <path d="M 417.041 96.861 L 390.231 96.861 C 388.668 96.892 387.725 98.603 388.533 99.941 C 388.893 100.537 389.534 100.907 390.231 100.921 L 417.041 100.921 C 418.603 100.89 419.547 99.179 418.738 97.841 C 418.378 97.245 417.737 96.875 417.041 96.861 Z" fill="#3f3d56"/>
  <path d="M 417.041 104.481 L 390.231 104.481 C 388.668 104.512 387.725 106.223 388.533 107.561 C 388.893 108.157 389.534 108.527 390.231 108.541 L 417.041 108.541 C 418.603 108.51 419.547 106.799 418.738 105.461 C 418.378 104.865 417.737 104.495 417.041 104.481 Z" fill="#3f3d56"/>
  <path d="M 417.041 112.091 L 390.231 112.091 C 388.668 112.122 387.725 113.833 388.533 115.171 C 388.893 115.767 389.534 116.137 390.231 116.151 L 417.041 116.151 C 418.603 116.12 419.547 114.409 418.738 113.071 C 418.378 112.475 417.737 112.105 417.041 112.091 Z" fill="#3f3d56"/>
  <g opacity="0.35" transform="matrix(1, 0, 0, 1, -239.874298, -154.509186)">
    <path d="M875.22825,564.89606c6.234-2.71811-6.4085-4.30042-20.752-4.82066s-31.695-.49146-40.86127-1.97121c-8.86513-1.43113-8.21194-3.97577-8.95766-6.2813s-4.15383-4.66951-17.98695-5.182c-17.23785-.63864-45.6641,1.81965-58.67678.34379-12.14326-1.37725-4.925-5.6974-22.632-5.86274-10.11121-.09442-23.13723,1.32986-34.388,1.67358a125.35792,125.35792,0,0,1-23.86052-1.244c-5.48377-.89845-9.30325-2.03749-15.475-2.83107-16.20333-2.08349-47.90478-1.38316-76.19949,1.28712s-52.54848,7.04636-66.22683,11.38066S471.7544,559.99,474.94061,563.60875c2.03457,2.31081,7.241,4.47154,19.87043,5.4001,23.62257,1.73681,65.68047-1.25272,90.09036.32746,13.60468.8807,19.64029,3.06422,31.577,4.259,12.824,1.28361,31.59716,1.35165,50.04182,1.3212,38.4041-.06341,77.7905-.458,117.95262-1.18157,16.775-.30225,34.35193-.69519,52.202-2.13554s36.05643-4.21941,39.82235-6.82467" transform="translate(-185.43432 -156.16183)" fill="#fff"/>
  </g>
</svg>